<mxfile host="app.diagrams.net" modified="2024-02-26T01:32:14.767Z" agent="Mozilla/5.0 (Windows NT 10.0; Win64; x64) AppleWebKit/537.36 (KHTML, like Gecko) Chrome/122.0.0.0 Safari/537.36 Edg/122.0.0.0" version="23.1.6" etag="Gr_I77y50tDfxaYi9x-s" type="github">
  <diagram name="페이지-1" id="U831Tjz4Kxd91zIhwBk2">
    <mxGraphModel>
      <root>
        <mxCell id="0" />
        <mxCell id="1" parent="0" />
      </root>
    </mxGraphModel>
  </diagram>
</mxfile>
